<?xml version="1.0" encoding="UTF-8" standalone="no"?>
<svg
   xmlns:dc="http://purl.org/dc/elements/1.1/"
   xmlns:cc="http://creativecommons.org/ns#"
   xmlns:rdf="http://www.w3.org/1999/02/22-rdf-syntax-ns#"
   xmlns:svg="http://www.w3.org/2000/svg"
   xmlns="http://www.w3.org/2000/svg"
   xmlns:sodipodi="http://sodipodi.sourceforge.net/DTD/sodipodi-0.dtd"
   xmlns:inkscape="http://www.inkscape.org/namespaces/inkscape"
   sodipodi:docname="riflemansignia.svg"
   inkscape:version="1.0beta2 (2b71d25, 2019-12-03)"
   id="svg8"
   version="1.1"
   viewBox="0 0 210 297"
   height="297mm"
   width="210mm">
  <defs
     id="defs2">
    <inkscape:path-effect
       effect="spiro"
       id="path-effect115"
       is_visible="true"
       lpeversion="1" />
    <inkscape:path-effect
       effect="spiro"
       id="path-effect111"
       is_visible="true"
       lpeversion="1" />
    <inkscape:path-effect
       effect="spiro"
       id="path-effect58"
       is_visible="true"
       lpeversion="1" />
    <inkscape:path-effect
       lpeversion="1"
       is_visible="true"
       id="path-effect58-6"
       effect="spiro" />
    <inkscape:path-effect
       lpeversion="1"
       is_visible="true"
       id="path-effect58-0"
       effect="spiro" />
    <inkscape:path-effect
       effect="spiro"
       id="path-effect58-6-2"
       is_visible="true"
       lpeversion="1" />
  </defs>
  <sodipodi:namedview
     inkscape:window-maximized="0"
     inkscape:window-y="23"
     inkscape:window-x="0"
     inkscape:window-height="880"
     inkscape:window-width="1600"
     showgrid="false"
     inkscape:document-rotation="0"
     inkscape:current-layer="layer1"
     inkscape:document-units="mm"
     inkscape:cy="588.57143"
     inkscape:cx="467.14288"
     inkscape:zoom="0.35"
     inkscape:pageshadow="2"
     inkscape:pageopacity="0.0"
     borderopacity="1.0"
     bordercolor="#666666"
     pagecolor="#ffffff"
     id="base" />
  <metadata
     id="metadata5">
    <rdf:RDF>
      <cc:Work
         rdf:about="">
        <dc:format>image/svg+xml</dc:format>
        <dc:type
           rdf:resource="http://purl.org/dc/dcmitype/StillImage" />
        <dc:title />
      </cc:Work>
    </rdf:RDF>
  </metadata>
  <g
     id="layer1"
     inkscape:groupmode="layer"
     inkscape:label="Layer 1">
    <g
       inkscape:export-ydpi="96"
       inkscape:export-xdpi="96"
       id="g25">
      <circle
         style="fill:#588959;fill-opacity:1;stroke:#000000;stroke-width:2;stroke-opacity:1"
         id="path1028"
         cx="106.96726"
         cy="130.40179"
         r="54.806545" />
      <path
         sodipodi:nodetypes="csscccsccscccccccssscccc"
         inkscape:connector-curvature="0"
         id="path117"
         d="m 68.125916,149.73344 c -0.513942,-0.16783 -0.745724,-0.72801 -0.745724,-1.80232 0,-0.85734 -0.121196,-3.46697 -0.269324,-5.79919 l -0.269324,-4.24037 2.110026,0.15922 c 2.875543,0.21701 8.770414,-0.97905 11.991109,-2.43297 4.153888,-1.87518 7.155509,-4.08942 10.942255,-8.07186 6.399226,-6.72992 11.060416,-15.87425 13.573876,-26.62919 l 0.96128,-4.113312 0.77597,3.398922 c 5.05316,22.13391 19.83972,37.45284 36.33559,37.64378 l 3.9227,0.0455 0.21435,2.38126 c 0.11789,1.30969 0.30649,3.92779 0.41911,5.81797 l 0.20476,3.43672 -1.46506,0.30717 c -1.7643,0.36992 -8.36772,-0.45105 -11.90597,-1.48022 -8.32961,-2.4228 -16.50872,-8.63884 -21.35549,-16.22994 -2.07065,-3.24309 -5.68578,-12.94029 -5.68578,-12.94029 -0.86378,2.38733 -1.02915,-2.28184 -1.69466,0.72066 -0.8001,3.6097 -3.64181,9.74195 -6.432717,13.88143 -6.229957,9.24031 -16.483068,15.19494 -27.472226,15.95488 -1.874964,0.12967 -3.744602,0.12616 -4.154751,-0.007 z"
         style="fill:#ffffff;stroke:#ffffff;stroke-width:4" />
    </g>
  </g>
</svg>
